<svg width="25" height="25" fill="none" xmlns="http://www.w3.org/2000/svg"><path d="M24.61 12.625c0 2.995-.977 5.631-2.93 7.91-1.953 2.246-4.379 3.597-7.276 4.053V16.14h2.832l.537-3.516h-3.369V10.33c0-1.237.651-1.855 1.953-1.855h1.514V5.496a15.258 15.258 0 00-2.685-.244c-.944 0-1.758.179-2.442.537-.65.358-1.172.895-1.562 1.611-.391.717-.586 1.563-.586 2.54v2.685H7.52v3.516h3.076v8.447c-2.897-.456-5.323-1.807-7.276-4.053C1.367 18.256.39 15.62.39 12.625c0-3.353 1.172-6.201 3.516-8.545C6.283 1.704 9.147.516 12.5.516c3.353 0 6.201 1.188 8.545 3.564 2.376 2.344 3.564 5.192 3.564 8.545z" fill="#000" fill-opacity=".6"/></svg>