<svg width="25" height="26" fill="none" xmlns="http://www.w3.org/2000/svg"><path d="M21.68 2.566c1.074.944 1.839 2.442 2.295 4.493.455 2.018.504 4.524.146 7.52a9.465 9.465 0 01-.488 2.05 8.268 8.268 0 01-.684 1.611c-.26.423-.57.814-.928 1.172a5.945 5.945 0 01-.976.879 6.913 6.913 0 01-.977.537c-.358.163-.65.293-.879.39-.227.066-.488.131-.78.196a4.187 4.187 0 01-.44.098c-.228.097-.619.195-1.172.293-.553.097-1.432.195-2.637.293-1.204.13-2.409.13-3.613 0a323.94 323.94 0 00-1.465 1.611l-.39.39a6.932 6.932 0 01-.342.391 4.603 4.603 0 01-.342.293c-.13.163-.228.244-.293.244-.065 0-.18.033-.342.098-.163.065-.277.049-.342-.049a.725.725 0 01-.342-.195.725.725 0 01-.195-.342 4.704 4.704 0 01-.098-.342v-.244l-.048-.098.048-2.539h-.048a8.993 8.993 0 01-1.905-.78 6.805 6.805 0 01-1.464-1.173c-.359-.423-.7-.879-1.026-1.367a8.146 8.146 0 01-.683-1.562c-.13-.521-.26-1.058-.391-1.612a14.47 14.47 0 01-.195-1.611c0-.52-.017-1.026-.05-1.514 0-.488.017-.927.05-1.318.065-3.548.878-6.104 2.441-7.666.977-.879 2.279-1.53 3.906-1.953C8.66.337 10.06.125 11.231.125h1.709c1.692.033 3.222.228 4.59.586 1.399.325 2.36.651 2.88.977.521.292.944.585 1.27.878zm.683 11.573c.326-2.54.293-4.688-.097-6.446-.358-1.79-.993-3.076-1.905-3.857-.227-.228-.586-.472-1.074-.732-.488-.26-1.334-.521-2.539-.782-1.172-.26-2.474-.407-3.906-.44h-.635c-.26 0-.765.033-1.514.098-.716.033-1.416.114-2.1.245-.65.097-1.366.309-2.148.634-.78.293-1.416.684-1.904 1.172-1.335 1.302-2.034 3.434-2.1 6.397.033.586.033 1.22 0 1.904-.032.651.033 1.367.196 2.148.162.75.374 1.465.634 2.149.293.65.765 1.27 1.417 1.855.65.554 1.448.96 2.392 1.221a915.466 915.466 0 00-.049 4.2c0 .227.065.357.196.39.13.065.26.016.39-.147l3.32-3.857a24.25 24.25 0 003.077 0c1.041-.098 1.806-.195 2.295-.293a9.91 9.91 0 001.025-.244c.032 0 .179-.033.44-.098a7.6 7.6 0 00.732-.195c.228-.098.52-.228.879-.39.358-.163.667-.375.927-.636.293-.292.586-.618.88-.976.292-.39.537-.863.732-1.416.195-.586.342-1.22.44-1.904zm-6.787-3.955c0 .228-.114.341-.342.341-.195 0-.293-.097-.293-.293-.065-1.041-.602-1.595-1.61-1.66a.329.329 0 01-.294-.146.411.411 0 01.049-.342.329.329 0 01.293-.146c1.4.065 2.132.813 2.197 2.246zm.977.586c.032-1.075-.277-1.97-.928-2.686s-1.579-1.123-2.783-1.22c-.13 0-.212-.05-.244-.147a.607.607 0 010-.342.328.328 0 01.293-.146c1.367.097 2.425.57 3.173 1.416.782.846 1.156 1.888 1.123 3.125 0 .13-.048.227-.146.293a.607.607 0 01-.342 0 .329.329 0 01-.146-.293zm2.295.634a.33.33 0 01-.147.293.608.608 0 01-.342 0 .329.329 0 01-.146-.293c0-1.92-.57-3.418-1.71-4.492-1.106-1.107-2.506-1.66-4.198-1.66-.196 0-.293-.098-.293-.293 0-.228.097-.342.293-.342 1.888 0 3.45.619 4.687 1.856 1.237 1.204 1.856 2.848 1.856 4.931zm-.537 4.785a4.822 4.822 0 01-1.172 1.368c-.456.325-.912.407-1.367.244-.554-.163-1.351-.521-2.393-1.074-1.01-.554-1.872-1.107-2.588-1.66a12.815 12.815 0 01-2.1-2.1 19.09 19.09 0 01-1.464-2.246 25.62 25.62 0 01-.83-1.514 14.602 14.602 0 01-.391-.977l-.049-.244c-.163-.455-.081-.911.244-1.367a4.822 4.822 0 011.367-1.172c.456-.228.847-.162 1.172.196.39.488.684.846.88 1.074.227.325.471.716.732 1.172.293.553.227.993-.196 1.318l-.586.44a.474.474 0 00-.195.292.922.922 0 00-.049.293v.098c.033.098.065.228.098.39.065.13.195.408.39.83.228.391.473.766.733 1.124a7.73 7.73 0 001.172 1.025c.52.358 1.09.619 1.709.781.293 0 .52-.097.683-.293l.489-.585c.325-.424.748-.489 1.27-.196.91.521 1.66 1.058 2.245 1.612.358.325.423.716.196 1.171z" fill="#000" fill-opacity=".6"/></svg>