<svg width="25" height="25" viewBox="0 0 25 25" fill="none" xmlns="http://www.w3.org/2000/svg">
<path d="M24.6094 12.625C24.6094 15.6198 23.6328 18.2565 21.6797 20.5352C19.7266 22.7812 17.3014 24.1322 14.4043 24.5879V16.1406H17.2363L17.7734 12.625H14.4043V10.3301C14.4043 9.0931 15.0553 8.47461 16.3574 8.47461H17.8711V5.49609C16.9596 5.33333 16.0645 5.25195 15.1855 5.25195C14.2415 5.25195 13.4277 5.43099 12.7441 5.78906C12.0931 6.14714 11.5723 6.68424 11.1816 7.40039C10.791 8.11654 10.5957 8.96289 10.5957 9.93945V12.625H7.51953V16.1406H10.5957V24.5879C7.69857 24.1322 5.27344 22.7812 3.32031 20.5352C1.36719 18.2565 0.390625 15.6198 0.390625 12.625C0.390625 9.27214 1.5625 6.42383 3.90625 4.08008C6.28255 1.70378 9.14714 0.515625 12.5 0.515625C15.8529 0.515625 18.7012 1.70378 21.0449 4.08008C23.4212 6.42383 24.6094 9.27214 24.6094 12.625Z" fill="black" fill-opacity="0.6"/>
</svg>
