<!-- Generated by IcoMoon.io -->
<svg version="1.1" xmlns="http://www.w3.org/2000/svg" width="32" height="32" viewBox="0 0 32 32">
<title>fb</title>
<path d="M31.5 16.16c0 3.833-1.25 7.208-3.75 10.125-2.5 2.875-5.604 4.604-9.313 5.187v-10.813h3.625l0.688-4.5h-4.312v-2.937c0-1.583 0.833-2.375 2.5-2.375h1.938v-3.813c-1.167-0.208-2.312-0.313-3.438-0.313-1.208 0-2.25 0.229-3.125 0.688-0.833 0.458-1.5 1.146-2 2.063s-0.75 2-0.75 3.25v3.438h-3.938v4.5h3.938v10.813c-3.708-0.583-6.813-2.313-9.313-5.187-2.5-2.917-3.75-6.292-3.75-10.125 0-4.292 1.5-7.938 4.5-10.938 3.042-3.042 6.708-4.563 11-4.563s7.938 1.521 10.937 4.563c3.042 3 4.563 6.646 4.563 10.938z"></path>
</svg>
