<svg width="22" height="23" viewBox="0 0 22 23" fill="none" xmlns="http://www.w3.org/2000/svg">
<path d="M6.98242 7.66992C8.08919 6.56315 9.42383 6.00977 10.9863 6.00977C12.5488 6.00977 13.8672 6.56315 14.9414 7.66992C16.0482 8.74414 16.6016 10.0625 16.6016 11.625C16.6016 13.1875 16.0482 14.5221 14.9414 15.6289C13.8672 16.7031 12.5488 17.2402 10.9863 17.2402C9.42383 17.2402 8.08919 16.7031 6.98242 15.6289C5.9082 14.5221 5.37109 13.1875 5.37109 11.625C5.37109 10.0625 5.9082 8.74414 6.98242 7.66992ZM8.39844 14.2129C9.11458 14.929 9.97721 15.2871 10.9863 15.2871C11.9954 15.2871 12.8581 14.929 13.5742 14.2129C14.2904 13.4967 14.6484 12.6341 14.6484 11.625C14.6484 10.6159 14.2904 9.75326 13.5742 9.03711C12.8581 8.32096 11.9954 7.96289 10.9863 7.96289C9.97721 7.96289 9.11458 8.32096 8.39844 9.03711C7.68229 9.75326 7.32422 10.6159 7.32422 11.625C7.32422 12.6341 7.68229 13.4967 8.39844 14.2129ZM17.7246 4.88672C17.985 5.11458 18.1152 5.40755 18.1152 5.76562C18.1152 6.1237 17.985 6.43294 17.7246 6.69336C17.4967 6.95378 17.2038 7.08398 16.8457 7.08398C16.4876 7.08398 16.1784 6.95378 15.918 6.69336C15.6576 6.43294 15.5273 6.1237 15.5273 5.76562C15.5273 5.40755 15.6576 5.11458 15.918 4.88672C16.1784 4.6263 16.4876 4.49609 16.8457 4.49609C17.2038 4.49609 17.4967 4.6263 17.7246 4.88672ZM21.875 7.13281C21.9076 8.01172 21.9238 9.50911 21.9238 11.625C21.9238 13.7409 21.9076 15.2383 21.875 16.1172C21.7773 18.1029 21.1751 19.6491 20.0684 20.7559C18.9941 21.8301 17.4642 22.3997 15.4785 22.4648C14.5996 22.5299 13.1022 22.5625 10.9863 22.5625C8.87044 22.5625 7.37305 22.5299 6.49414 22.4648C4.50846 22.3672 2.97852 21.7812 1.9043 20.707C1.48112 20.3164 1.13932 19.8607 0.878906 19.3398C0.61849 18.819 0.423177 18.3145 0.292969 17.8262C0.195312 17.3379 0.146484 16.7682 0.146484 16.1172C0.0813802 15.2383 0.0488281 13.7409 0.0488281 11.625C0.0488281 9.50911 0.0813802 7.99544 0.146484 7.08398C0.244141 5.13086 0.830078 3.61719 1.9043 2.54297C2.97852 1.4362 4.50846 0.833984 6.49414 0.736328C7.37305 0.703776 8.87044 0.6875 10.9863 0.6875C13.1022 0.6875 14.5996 0.703776 15.4785 0.736328C17.4642 0.833984 18.9941 1.4362 20.0684 2.54297C21.1751 3.61719 21.7773 5.14714 21.875 7.13281ZM19.5312 18.0703C19.6289 17.8099 19.7103 17.4844 19.7754 17.0938C19.8405 16.6706 19.8893 16.1823 19.9219 15.6289C19.9544 15.043 19.9707 14.571 19.9707 14.2129C19.9707 13.8548 19.9707 13.3503 19.9707 12.6992C19.9707 12.0482 19.9707 11.6901 19.9707 11.625C19.9707 11.5273 19.9707 11.1693 19.9707 10.5508C19.9707 9.89974 19.9707 9.39518 19.9707 9.03711C19.9707 8.67904 19.9544 8.22331 19.9219 7.66992C19.8893 7.08398 19.8405 6.5957 19.7754 6.20508C19.7103 5.7819 19.6289 5.4401 19.5312 5.17969C19.1406 4.17057 18.4408 3.4707 17.4316 3.08008C17.1712 2.98242 16.8294 2.90104 16.4062 2.83594C16.0156 2.77083 15.5273 2.72201 14.9414 2.68945C14.388 2.6569 13.9323 2.64062 13.5742 2.64062C13.2487 2.64062 12.7441 2.64062 12.0605 2.64062C11.4095 2.64062 11.0514 2.64062 10.9863 2.64062C10.9212 2.64062 10.5632 2.64062 9.91211 2.64062C9.26107 2.64062 8.75651 2.64062 8.39844 2.64062C8.04036 2.64062 7.56836 2.6569 6.98242 2.68945C6.42904 2.72201 5.94076 2.77083 5.51758 2.83594C5.12695 2.90104 4.80143 2.98242 4.54102 3.08008C3.5319 3.4707 2.83203 4.17057 2.44141 5.17969C2.34375 5.4401 2.26237 5.7819 2.19727 6.20508C2.13216 6.5957 2.08333 7.08398 2.05078 7.66992C2.01823 8.22331 2.00195 8.67904 2.00195 9.03711C2.00195 9.36263 2.00195 9.86719 2.00195 10.5508C2.00195 11.2018 2.00195 11.5599 2.00195 11.625C2.00195 11.7552 2.00195 12.0645 2.00195 12.5527C2.00195 13.0085 2.00195 13.3991 2.00195 13.7246C2.00195 14.0176 2.00195 14.4082 2.00195 14.8965C2.03451 15.3848 2.06706 15.8079 2.09961 16.166C2.13216 16.4915 2.18099 16.8333 2.24609 17.1914C2.3112 17.5495 2.3763 17.8424 2.44141 18.0703C2.86458 19.0794 3.56445 19.7793 4.54102 20.1699C4.80143 20.2676 5.12695 20.349 5.51758 20.4141C5.94076 20.4792 6.42904 20.528 6.98242 20.5605C7.56836 20.5931 8.02409 20.6094 8.34961 20.6094C8.70768 20.6094 9.21224 20.6094 9.86328 20.6094C10.5469 20.6094 10.9212 20.6094 10.9863 20.6094C11.084 20.6094 11.4421 20.6094 12.0605 20.6094C12.7116 20.6094 13.2161 20.6094 13.5742 20.6094C13.9323 20.6094 14.388 20.5931 14.9414 20.5605C15.5273 20.528 16.0156 20.4792 16.4062 20.4141C16.8294 20.349 17.1712 20.2676 17.4316 20.1699C18.4408 19.7467 19.1406 19.0469 19.5312 18.0703Z" fill="black" fill-opacity="0.6"/>
</svg>
