<!-- Generated by IcoMoon.io -->
<svg version="1.1" xmlns="http://www.w3.org/2000/svg" width="32" height="32" viewBox="0 0 32 32">
<title>insta</title>
<path d="M10.41 10.671c1.54-1.54 3.397-2.31 5.571-2.31s4.008 0.77 5.503 2.31c1.54 1.495 2.31 3.329 2.31 5.503s-0.77 4.031-2.31 5.571c-1.495 1.495-3.329 2.242-5.503 2.242s-4.031-0.747-5.571-2.242c-1.495-1.54-2.242-3.397-2.242-5.571s0.747-4.008 2.242-5.503zM12.38 19.774c0.996 0.996 2.197 1.495 3.601 1.495s2.604-0.498 3.601-1.495c0.996-0.996 1.495-2.197 1.495-3.601s-0.498-2.604-1.495-3.601c-0.996-0.996-2.197-1.495-3.601-1.495s-2.604 0.498-3.601 1.495c-0.996 0.996-1.495 2.197-1.495 3.601s0.498 2.604 1.495 3.601zM25.356 6.799c0.362 0.317 0.543 0.725 0.543 1.223s-0.181 0.928-0.543 1.291c-0.317 0.362-0.725 0.543-1.223 0.543s-0.928-0.181-1.291-0.543c-0.362-0.362-0.544-0.793-0.544-1.291s0.181-0.906 0.544-1.223c0.362-0.362 0.793-0.543 1.291-0.543s0.906 0.181 1.223 0.543zM31.13 9.924c0.045 1.223 0.068 3.306 0.068 6.25s-0.023 5.027-0.068 6.25c-0.136 2.763-0.974 4.914-2.514 6.454-1.495 1.495-3.623 2.287-6.386 2.378-1.223 0.091-3.306 0.136-6.25 0.136s-5.027-0.045-6.25-0.136c-2.763-0.136-4.891-0.951-6.386-2.446-0.589-0.543-1.064-1.177-1.427-1.902s-0.634-1.427-0.815-2.106c-0.136-0.679-0.204-1.472-0.204-2.378-0.091-1.223-0.136-3.306-0.136-6.25s0.045-5.050 0.136-6.318c0.136-2.717 0.951-4.823 2.446-6.318 1.495-1.54 3.623-2.378 6.386-2.514 1.223-0.045 3.306-0.068 6.25-0.068s5.027 0.023 6.25 0.068c2.763 0.136 4.891 0.974 6.386 2.514 1.54 1.495 2.378 3.623 2.514 6.386zM27.869 25.141c0.136-0.362 0.249-0.815 0.34-1.359 0.091-0.589 0.158-1.268 0.204-2.038 0.045-0.815 0.068-1.472 0.068-1.97s0-1.2 0-2.106c0-0.906 0-1.404 0-1.495 0-0.136 0-0.634 0-1.495 0-0.906 0-1.608 0-2.106s-0.023-1.132-0.068-1.902c-0.045-0.815-0.113-1.495-0.204-2.038-0.091-0.589-0.204-1.064-0.34-1.427-0.543-1.404-1.517-2.378-2.921-2.921-0.362-0.136-0.838-0.249-1.427-0.34-0.543-0.091-1.223-0.159-2.038-0.204-0.77-0.045-1.404-0.068-1.902-0.068-0.453 0-1.155 0-2.106 0-0.906 0-1.404 0-1.495 0s-0.589 0-1.495 0c-0.906 0-1.608 0-2.106 0s-1.155 0.023-1.97 0.068c-0.77 0.045-1.449 0.113-2.038 0.204-0.543 0.091-0.996 0.204-1.359 0.34-1.404 0.543-2.378 1.517-2.921 2.921-0.136 0.362-0.249 0.838-0.34 1.427-0.091 0.543-0.159 1.223-0.204 2.038-0.045 0.77-0.068 1.404-0.068 1.902 0 0.453 0 1.155 0 2.106 0 0.906 0 1.404 0 1.495 0 0.181 0 0.611 0 1.291 0 0.634 0 1.178 0 1.63 0 0.408 0 0.951 0 1.63 0.045 0.679 0.091 1.268 0.136 1.766 0.045 0.453 0.113 0.928 0.204 1.427s0.181 0.906 0.272 1.223c0.589 1.404 1.563 2.378 2.921 2.921 0.362 0.136 0.815 0.249 1.359 0.34 0.589 0.091 1.268 0.158 2.038 0.204 0.815 0.045 1.449 0.068 1.902 0.068 0.498 0 1.2 0 2.106 0 0.951 0 1.472 0 1.562 0 0.136 0 0.634 0 1.495 0 0.906 0 1.608 0 2.106 0s1.132-0.023 1.902-0.068c0.815-0.045 1.495-0.113 2.038-0.204 0.589-0.091 1.064-0.204 1.427-0.34 1.404-0.589 2.378-1.562 2.921-2.921z"></path>
</svg>
