<!-- Generated by IcoMoon.io -->
<svg version="1.1" xmlns="http://www.w3.org/2000/svg" width="32" height="32" viewBox="0 0 32 32">
<title>tm</title>
<path d="M31.818 5.031l-4.83 22.585c-0.379 1.61-1.255 2.036-2.628 1.278l-7.315-5.398-3.551 3.409c-0.473 0.474-0.971 0.71-1.491 0.71l0.568-7.457 13.565-12.216c0.331-0.331 0.331-0.521 0-0.568-0.284-0.095-0.592-0.024-0.923 0.213l-16.761 10.582-7.244-2.273c-0.805-0.237-1.184-0.592-1.136-1.065s0.544-0.876 1.491-1.207l28.196-10.938c0.71-0.237 1.278-0.142 1.705 0.284 0.426 0.379 0.544 1.065 0.355 2.060z"></path>
</svg>
