<!-- Generated by IcoMoon.io -->
<svg version="1.1" xmlns="http://www.w3.org/2000/svg" width="32" height="32" viewBox="0 0 32 32">
<title>viber</title>
<path d="M27.298 3.159c1.322 1.162 2.264 3.005 2.825 5.529 0.561 2.484 0.621 5.569 0.18 9.255-0.12 0.921-0.32 1.763-0.601 2.524-0.24 0.761-0.521 1.422-0.841 1.983-0.32 0.521-0.701 1.002-1.142 1.442-0.401 0.441-0.801 0.801-1.202 1.082-0.36 0.24-0.761 0.461-1.202 0.661s-0.801 0.361-1.082 0.481c-0.28 0.080-0.601 0.16-0.962 0.24-0.32 0.080-0.501 0.12-0.541 0.12-0.28 0.12-0.761 0.24-1.442 0.361s-1.763 0.24-3.245 0.361c-1.482 0.16-2.965 0.16-4.447 0-0.841 0.921-1.442 1.583-1.803 1.983-0.12 0.12-0.28 0.28-0.481 0.481-0.2 0.24-0.341 0.401-0.421 0.481s-0.22 0.2-0.421 0.361c-0.16 0.2-0.28 0.3-0.361 0.3s-0.22 0.040-0.421 0.12c-0.2 0.080-0.341 0.060-0.421-0.060-0.16-0.040-0.3-0.12-0.421-0.24s-0.2-0.26-0.24-0.421c-0.040-0.12-0.080-0.26-0.12-0.421 0-0.12 0-0.22 0-0.301l-0.060-0.12 0.060-3.125h-0.060c-0.841-0.24-1.623-0.561-2.344-0.961-0.721-0.441-1.322-0.921-1.803-1.442-0.441-0.521-0.861-1.082-1.262-1.683-0.361-0.641-0.641-1.282-0.841-1.923-0.16-0.641-0.321-1.302-0.481-1.983-0.12-0.681-0.2-1.342-0.24-1.983 0-0.641-0.020-1.262-0.060-1.863 0-0.601 0.020-1.142 0.060-1.623 0.080-4.367 1.082-7.512 3.005-9.435 1.202-1.082 2.804-1.883 4.808-2.404s3.726-0.781 5.168-0.781h2.103c2.083 0.040 3.966 0.28 5.649 0.721 1.723 0.401 2.905 0.801 3.546 1.202 0.641 0.361 1.162 0.721 1.562 1.082zM28.139 17.401c0.401-3.125 0.36-5.769-0.12-7.933-0.441-2.204-1.222-3.786-2.344-4.748-0.28-0.28-0.721-0.581-1.322-0.901s-1.643-0.641-3.125-0.962c-1.442-0.321-3.045-0.501-4.808-0.541-0.16 0-0.421 0-0.781 0-0.32 0-0.941 0.040-1.863 0.12-0.881 0.040-1.743 0.14-2.584 0.3-0.801 0.12-1.683 0.381-2.644 0.781-0.962 0.361-1.743 0.841-2.344 1.442-1.643 1.603-2.504 4.227-2.584 7.873 0.040 0.721 0.040 1.502 0 2.344-0.040 0.801 0.040 1.683 0.24 2.644 0.2 0.921 0.461 1.803 0.781 2.644 0.361 0.801 0.941 1.562 1.743 2.284 0.801 0.681 1.783 1.182 2.945 1.502-0.040 3.165-0.060 4.888-0.060 5.168s0.080 0.441 0.24 0.481c0.16 0.080 0.321 0.020 0.481-0.18l4.087-4.748c1.242 0.080 2.504 0.080 3.786 0 1.282-0.12 2.224-0.24 2.825-0.361s1.022-0.22 1.262-0.3c0.040 0 0.22-0.040 0.541-0.12 0.361-0.080 0.661-0.16 0.902-0.24 0.28-0.12 0.641-0.28 1.082-0.481s0.821-0.461 1.142-0.781c0.361-0.36 0.721-0.761 1.082-1.202 0.361-0.481 0.661-1.062 0.901-1.743 0.24-0.721 0.421-1.502 0.541-2.344zM19.786 12.534c0 0.28-0.14 0.421-0.421 0.421-0.24 0-0.361-0.12-0.361-0.361-0.080-1.282-0.741-1.963-1.983-2.043-0.16 0-0.28-0.060-0.361-0.18-0.040-0.16-0.020-0.3 0.060-0.421s0.2-0.18 0.361-0.18c1.723 0.080 2.624 1.002 2.704 2.764zM20.988 13.255c0.040-1.322-0.341-2.424-1.142-3.305s-1.943-1.382-3.425-1.502c-0.16 0-0.26-0.060-0.3-0.18-0.040-0.16-0.040-0.3 0-0.421 0.080-0.12 0.2-0.18 0.36-0.18 1.683 0.12 2.985 0.701 3.906 1.743 0.961 1.042 1.422 2.324 1.382 3.846 0 0.16-0.060 0.28-0.18 0.361-0.12 0.040-0.26 0.040-0.421 0-0.12-0.080-0.18-0.2-0.18-0.361zM23.813 14.036c0 0.16-0.060 0.28-0.18 0.361-0.12 0.040-0.26 0.040-0.421 0-0.12-0.080-0.18-0.2-0.18-0.361 0-2.364-0.701-4.207-2.103-5.529-1.362-1.362-3.085-2.043-5.168-2.043-0.24 0-0.361-0.12-0.361-0.361 0-0.28 0.12-0.421 0.361-0.421 2.324 0 4.247 0.761 5.769 2.284 1.522 1.482 2.284 3.506 2.284 6.070zM23.151 19.926c-0.401 0.681-0.881 1.242-1.442 1.683-0.561 0.401-1.122 0.501-1.683 0.301-0.681-0.2-1.663-0.641-2.945-1.322-1.242-0.681-2.304-1.362-3.185-2.043-0.961-0.761-1.823-1.623-2.584-2.584-0.641-0.841-1.242-1.763-1.803-2.764-0.401-0.681-0.741-1.302-1.022-1.863-0.24-0.561-0.401-0.962-0.481-1.202l-0.060-0.3c-0.2-0.561-0.1-1.122 0.3-1.683 0.441-0.561 1.002-1.042 1.683-1.442 0.561-0.28 1.042-0.2 1.442 0.24 0.481 0.601 0.841 1.042 1.082 1.322 0.28 0.401 0.581 0.881 0.902 1.442 0.361 0.681 0.28 1.222-0.241 1.623l-0.721 0.541c-0.12 0.080-0.2 0.2-0.24 0.361-0.040 0.12-0.060 0.24-0.060 0.361v0.12c0.040 0.12 0.080 0.28 0.12 0.481 0.080 0.16 0.24 0.501 0.481 1.022 0.28 0.481 0.581 0.942 0.901 1.382 0.361 0.401 0.841 0.821 1.442 1.262 0.641 0.441 1.342 0.761 2.103 0.962 0.361 0 0.641-0.12 0.841-0.361l0.601-0.721c0.401-0.521 0.921-0.601 1.562-0.241 1.122 0.641 2.043 1.302 2.764 1.983 0.441 0.401 0.521 0.881 0.24 1.442z"></path>
</svg>
