<svg width="25" height="26" viewBox="0 0 25 26" fill="none" xmlns="http://www.w3.org/2000/svg">
<path d="M21.6797 2.56641C22.7539 3.51042 23.5189 5.00781 23.9746 7.05859C24.4303 9.07682 24.4792 11.5833 24.1211 14.5781C24.0234 15.3268 23.8607 16.0104 23.6328 16.6289C23.4375 17.2474 23.2096 17.7845 22.9492 18.2402C22.6888 18.6634 22.3796 19.054 22.0215 19.4121C21.696 19.7702 21.3704 20.0632 21.0449 20.291C20.752 20.4863 20.4264 20.6654 20.0684 20.8281C19.7103 20.9909 19.4173 21.1211 19.1895 21.2188C18.9616 21.2839 18.7012 21.349 18.4082 21.4141C18.1478 21.4792 18.0013 21.5117 17.9688 21.5117C17.7409 21.6094 17.3503 21.707 16.7969 21.8047C16.2435 21.9023 15.3646 22 14.1602 22.0977C12.9557 22.2279 11.7513 22.2279 10.5469 22.0977C9.86328 22.8464 9.375 23.3835 9.08203 23.709C8.98438 23.8066 8.85417 23.9368 8.69141 24.0996C8.52865 24.2949 8.41471 24.4251 8.34961 24.4902C8.28451 24.5553 8.17057 24.653 8.00781 24.7832C7.8776 24.946 7.77995 25.0273 7.71484 25.0273C7.64974 25.0273 7.53581 25.0599 7.37305 25.125C7.21029 25.1901 7.09635 25.1738 7.03125 25.0762C6.90104 25.0436 6.78711 24.9785 6.68945 24.8809C6.5918 24.7832 6.52669 24.6693 6.49414 24.5391C6.46159 24.4414 6.42904 24.3275 6.39648 24.1973C6.39648 24.0996 6.39648 24.0182 6.39648 23.9531L6.34766 23.8555L6.39648 21.3164H6.34766C5.66406 21.1211 5.0293 20.8607 4.44336 20.5352C3.85742 20.1771 3.36914 19.7865 2.97852 19.3633C2.62044 18.9401 2.27865 18.4844 1.95312 17.9961C1.66016 17.4753 1.43229 16.9544 1.26953 16.4336C1.13932 15.9128 1.00911 15.3757 0.878906 14.8223C0.78125 14.2689 0.716146 13.7318 0.683594 13.2109C0.683594 12.6901 0.667318 12.1855 0.634766 11.6973C0.634766 11.209 0.651042 10.7695 0.683594 10.3789C0.748698 6.83073 1.5625 4.27539 3.125 2.71289C4.10156 1.83398 5.40365 1.18294 7.03125 0.759766C8.65885 0.336589 10.0586 0.125 11.2305 0.125H12.9395C14.6322 0.157552 16.1621 0.352865 17.5293 0.710938C18.929 1.03646 19.8893 1.36198 20.4102 1.6875C20.931 1.98047 21.3542 2.27344 21.6797 2.56641ZM22.3633 14.1387C22.6888 11.5996 22.6562 9.45117 22.2656 7.69336C21.9076 5.90299 21.2728 4.61719 20.3613 3.83594C20.1335 3.60807 19.7754 3.36393 19.2871 3.10352C18.7988 2.8431 17.9525 2.58268 16.748 2.32227C15.5762 2.06185 14.2741 1.91536 12.8418 1.88281C12.7116 1.88281 12.5 1.88281 12.207 1.88281C11.9466 1.88281 11.4421 1.91536 10.6934 1.98047C9.97721 2.01302 9.27734 2.0944 8.59375 2.22461C7.94271 2.32227 7.22656 2.53385 6.44531 2.85938C5.66406 3.15234 5.0293 3.54297 4.54102 4.03125C3.20638 5.33333 2.50651 7.46549 2.44141 10.4277C2.47396 11.0137 2.47396 11.6484 2.44141 12.332C2.40885 12.9831 2.47396 13.6992 2.63672 14.4805C2.79948 15.2292 3.01107 15.9453 3.27148 16.6289C3.56445 17.2799 4.03646 17.8984 4.6875 18.4844C5.33854 19.0378 6.13607 19.4447 7.08008 19.7051C7.04753 22.2767 7.03125 23.6764 7.03125 23.9043C7.03125 24.1322 7.09635 24.2624 7.22656 24.2949C7.35677 24.36 7.48698 24.3112 7.61719 24.1484L10.9375 20.291C11.9466 20.3561 12.972 20.3561 14.0137 20.291C15.0553 20.1934 15.8203 20.0957 16.3086 19.998C16.7969 19.9004 17.1387 19.819 17.334 19.7539C17.3665 19.7539 17.513 19.7214 17.7734 19.6562C18.0664 19.5911 18.3105 19.526 18.5059 19.4609C18.7337 19.3633 19.0267 19.2331 19.3848 19.0703C19.7428 18.9076 20.0521 18.696 20.3125 18.4355C20.6055 18.1426 20.8984 17.8171 21.1914 17.459C21.4844 17.0684 21.7285 16.5964 21.9238 16.043C22.1191 15.457 22.2656 14.8223 22.3633 14.1387ZM15.5762 10.1836C15.5762 10.4115 15.4622 10.5254 15.2344 10.5254C15.0391 10.5254 14.9414 10.4277 14.9414 10.2324C14.8763 9.19076 14.3392 8.63737 13.3301 8.57227C13.1999 8.57227 13.1022 8.52344 13.0371 8.42578C13.0046 8.29557 13.0208 8.18164 13.0859 8.08398C13.151 7.98633 13.2487 7.9375 13.3789 7.9375C14.7786 8.0026 15.5111 8.7513 15.5762 10.1836ZM16.5527 10.7695C16.5853 9.69531 16.276 8.80013 15.625 8.08398C14.974 7.36784 14.0462 6.96094 12.8418 6.86328C12.7116 6.86328 12.6302 6.81445 12.5977 6.7168C12.5651 6.58659 12.5651 6.47266 12.5977 6.375C12.6628 6.27734 12.7604 6.22852 12.8906 6.22852C14.2578 6.32617 15.3158 6.79818 16.0645 7.64453C16.8457 8.49089 17.2201 9.53255 17.1875 10.7695C17.1875 10.8997 17.1387 10.9974 17.041 11.0625C16.9434 11.0951 16.8294 11.0951 16.6992 11.0625C16.6016 10.9974 16.5527 10.8997 16.5527 10.7695ZM18.8477 11.4043C18.8477 11.5345 18.7988 11.6322 18.7012 11.6973C18.6035 11.7298 18.4896 11.7298 18.3594 11.6973C18.2617 11.6322 18.2129 11.5345 18.2129 11.4043C18.2129 9.48372 17.6432 7.98633 16.5039 6.91211C15.3971 5.80534 13.9974 5.25195 12.3047 5.25195C12.1094 5.25195 12.0117 5.1543 12.0117 4.95898C12.0117 4.73112 12.1094 4.61719 12.3047 4.61719C14.1927 4.61719 15.7552 5.23568 16.9922 6.47266C18.2292 7.67708 18.8477 9.32096 18.8477 11.4043ZM18.3105 16.1895C17.985 16.7428 17.5944 17.1986 17.1387 17.5566C16.6829 17.8822 16.2272 17.9635 15.7715 17.8008C15.2181 17.638 14.4206 17.2799 13.3789 16.7266C12.3698 16.1732 11.5072 15.6198 10.791 15.0664C10.0098 14.4479 9.3099 13.748 8.69141 12.9668C8.17057 12.2832 7.68229 11.5345 7.22656 10.7207C6.90104 10.1673 6.62435 9.66276 6.39648 9.20703C6.20117 8.7513 6.07096 8.42578 6.00586 8.23047L5.95703 7.98633C5.79427 7.5306 5.87565 7.07487 6.20117 6.61914C6.55924 6.16341 7.01497 5.77279 7.56836 5.44727C8.02409 5.2194 8.41471 5.28451 8.74023 5.64258C9.13086 6.13086 9.42383 6.48893 9.61914 6.7168C9.84701 7.04232 10.0911 7.43294 10.3516 7.88867C10.6445 8.44206 10.5794 8.88151 10.1562 9.20703L9.57031 9.64648C9.47266 9.71159 9.40755 9.80924 9.375 9.93945C9.34245 10.0371 9.32617 10.1348 9.32617 10.2324V10.3301C9.35872 10.4277 9.39128 10.5579 9.42383 10.7207C9.48893 10.8509 9.61914 11.1276 9.81445 11.5508C10.0423 11.9414 10.2865 12.3158 10.5469 12.6738C10.8398 12.9993 11.2305 13.3411 11.7188 13.6992C12.2396 14.0573 12.8092 14.3177 13.4277 14.4805C13.7207 14.4805 13.9486 14.3828 14.1113 14.1875L14.5996 13.6016C14.9251 13.1784 15.3483 13.1133 15.8691 13.4062C16.7806 13.9271 17.5293 14.4642 18.1152 15.0176C18.4733 15.3431 18.5384 15.7337 18.3105 16.1895Z" fill="black" fill-opacity="0.6"/>
</svg>
