<?xml version="1.0" encoding="utf-8"?><svg viewBox="0 0 32 32" xmlns="http://www.w3.org/2000/svg" xmlns:xlink="http://www.w3.org/1999/xlink"><style>:root>svg{display:none}:root>svg:target{display:block}</style><svg viewBox="0 0 32 32" id="sprite--fb" xmlns="http://www.w3.org/2000/svg"><path d="M31.5 16.16c0 3.833-1.25 7.208-3.75 10.125-2.5 2.875-5.604 4.604-9.313 5.187V20.659h3.625l.688-4.5h-4.312v-2.937c0-1.583.833-2.375 2.5-2.375h1.938V7.034a19.563 19.563 0 00-3.438-.313c-1.208 0-2.25.229-3.125.688-.833.458-1.5 1.146-2 2.063s-.75 2-.75 3.25v3.438H9.625v4.5h3.938v10.813C9.855 30.89 6.75 29.16 4.25 26.286 1.75 23.369.5 19.994.5 16.161.5 11.869 2 8.223 5 5.223 8.042 2.181 11.708.66 16 .66s7.938 1.521 10.937 4.563c3.042 3 4.563 6.646 4.563 10.938z"/></svg><svg viewBox="0 0 32 32" id="sprite--insta" xmlns="http://www.w3.org/2000/svg"><path d="M10.41 10.671c1.54-1.54 3.397-2.31 5.571-2.31s4.008.77 5.503 2.31c1.54 1.495 2.31 3.329 2.31 5.503s-.77 4.031-2.31 5.571c-1.495 1.495-3.329 2.242-5.503 2.242s-4.031-.747-5.571-2.242c-1.495-1.54-2.242-3.397-2.242-5.571s.747-4.008 2.242-5.503zm1.97 9.103c.996.996 2.197 1.495 3.601 1.495s2.604-.498 3.601-1.495c.996-.996 1.495-2.197 1.495-3.601s-.498-2.604-1.495-3.601c-.996-.996-2.197-1.495-3.601-1.495s-2.604.498-3.601 1.495c-.996.996-1.495 2.197-1.495 3.601s.498 2.604 1.495 3.601zM25.356 6.799c.362.317.543.725.543 1.223s-.181.928-.543 1.291c-.317.362-.725.543-1.223.543s-.928-.181-1.291-.543c-.362-.362-.544-.793-.544-1.291s.181-.906.544-1.223c.362-.362.793-.543 1.291-.543s.906.181 1.223.543zm5.774 3.125c.045 1.223.068 3.306.068 6.25s-.023 5.027-.068 6.25c-.136 2.763-.974 4.914-2.514 6.454-1.495 1.495-3.623 2.287-6.386 2.378-1.223.091-3.306.136-6.25.136s-5.027-.045-6.25-.136c-2.763-.136-4.891-.951-6.386-2.446-.589-.543-1.064-1.177-1.427-1.902s-.634-1.427-.815-2.106c-.136-.679-.204-1.472-.204-2.378-.091-1.223-.136-3.306-.136-6.25s.045-5.05.136-6.318c.136-2.717.951-4.823 2.446-6.318C4.839 1.998 6.967 1.16 9.73 1.024c1.223-.045 3.306-.068 6.25-.068s5.027.023 6.25.068c2.763.136 4.891.974 6.386 2.514 1.54 1.495 2.378 3.623 2.514 6.386zm-3.261 15.217c.136-.362.249-.815.34-1.359.091-.589.158-1.268.204-2.038a37.5 37.5 0 00.068-1.97v-7.202c0-.498-.023-1.132-.068-1.902a19.023 19.023 0 00-.204-2.038c-.091-.589-.204-1.064-.34-1.427-.543-1.404-1.517-2.378-2.921-2.921-.362-.136-.838-.249-1.427-.34a19.023 19.023 0 00-2.038-.204 33.859 33.859 0 00-1.902-.068h-7.202a37.5 37.5 0 00-1.97.068 21.84 21.84 0 00-2.038.204 7.449 7.449 0 00-1.359.34c-1.404.543-2.378 1.517-2.921 2.921-.136.362-.249.838-.34 1.427a19.023 19.023 0 00-.204 2.038c-.045.77-.068 1.404-.068 1.902v8.152c.045.679.091 1.268.136 1.766.045.453.113.928.204 1.427s.181.906.272 1.223c.589 1.404 1.563 2.378 2.921 2.921.362.136.815.249 1.359.34.589.091 1.268.158 2.038.204.815.045 1.449.068 1.902.068h7.269c.498 0 1.132-.023 1.902-.068a19.023 19.023 0 002.038-.204c.589-.091 1.064-.204 1.427-.34 1.404-.589 2.378-1.562 2.921-2.921z"/></svg><svg viewBox="0 0 32 32" id="sprite--phone" xmlns="http://www.w3.org/2000/svg"><path d="M29.432 21.004c-1.959 0-3.883-.306-5.706-.909-.893-.305-1.991-.025-2.537.535l-3.598 2.716c-4.173-2.227-6.743-4.797-8.94-8.938l2.636-3.504a2.585 2.585 0 00.636-2.621 18.192 18.192 0 01-.912-5.715A2.57 2.57 0 008.443 0H2.566A2.57 2.57 0 00-.002 2.568C-.002 18.797 13.201 32 29.43 32a2.57 2.57 0 002.568-2.568v-5.86a2.57 2.57 0 00-2.568-2.568z"/></svg><svg viewBox="0 0 32 32" id="sprite--tm" xmlns="http://www.w3.org/2000/svg"><path d="M31.818 5.031l-4.83 22.585c-.379 1.61-1.255 2.036-2.628 1.278l-7.315-5.398-3.551 3.409c-.473.474-.971.71-1.491.71l.568-7.457L26.136 7.942c.331-.331.331-.521 0-.568-.284-.095-.592-.024-.923.213L8.452 18.169l-7.244-2.273c-.805-.237-1.184-.592-1.136-1.065s.544-.876 1.491-1.207L29.759 2.686c.71-.237 1.278-.142 1.705.284.426.379.544 1.065.355 2.06z"/></svg><svg viewBox="0 0 32 32" id="sprite--viber" xmlns="http://www.w3.org/2000/svg"><path d="M27.298 3.159c1.322 1.162 2.264 3.005 2.825 5.529.561 2.484.621 5.569.18 9.255-.12.921-.32 1.763-.601 2.524-.24.761-.521 1.422-.841 1.983a7.798 7.798 0 01-1.142 1.442 7.336 7.336 0 01-1.202 1.082c-.36.24-.761.461-1.202.661s-.801.361-1.082.481c-.28.08-.601.16-.962.24-.32.08-.501.12-.541.12-.28.12-.761.24-1.442.361s-1.763.24-3.245.361a20.66 20.66 0 01-4.447 0c-.841.921-1.442 1.583-1.803 1.983l-.481.481c-.2.24-.341.401-.421.481s-.22.2-.421.361c-.16.2-.28.3-.361.3s-.22.04-.421.12c-.2.08-.341.06-.421-.06-.16-.04-.3-.12-.421-.24s-.2-.26-.24-.421a5.66 5.66 0 01-.12-.421v-.301l-.06-.12.06-3.125h-.06a11.086 11.086 0 01-2.344-.961c-.721-.441-1.322-.921-1.803-1.442a18.45 18.45 0 01-1.262-1.683 9.977 9.977 0 01-.841-1.923c-.16-.641-.321-1.302-.481-1.983-.12-.681-.2-1.342-.24-1.983 0-.641-.02-1.262-.06-1.863 0-.601.02-1.142.06-1.623.08-4.367 1.082-7.512 3.005-9.435C5.662 2.258 7.264 1.457 9.268.936s3.726-.781 5.168-.781h2.103c2.083.04 3.966.28 5.649.721 1.723.401 2.905.801 3.546 1.202.641.361 1.162.721 1.562 1.082zm.841 14.242c.401-3.125.36-5.769-.12-7.933-.441-2.204-1.222-3.786-2.344-4.748-.28-.28-.721-.581-1.322-.901s-1.643-.641-3.125-.962c-1.442-.321-3.045-.501-4.808-.541h-.781c-.32 0-.941.04-1.863.12-.881.04-1.743.14-2.584.3-.801.12-1.683.381-2.644.781-.962.361-1.743.841-2.344 1.442C4.561 6.562 3.7 9.186 3.62 12.832c.04.721.04 1.502 0 2.344-.04.801.04 1.683.24 2.644.2.921.461 1.803.781 2.644.361.801.941 1.562 1.743 2.284.801.681 1.783 1.182 2.945 1.502-.04 3.165-.06 4.888-.06 5.168s.08.441.24.481c.16.08.321.02.481-.18l4.087-4.748c1.242.08 2.504.08 3.786 0 1.282-.12 2.224-.24 2.825-.361s1.022-.22 1.262-.3c.04 0 .22-.04.541-.12.361-.08.661-.16.902-.24.28-.12.641-.28 1.082-.481s.821-.461 1.142-.781c.361-.36.721-.761 1.082-1.202.361-.481.661-1.062.901-1.743a13.4 13.4 0 00.541-2.344zm-8.353-4.867c0 .28-.14.421-.421.421-.24 0-.361-.12-.361-.361-.08-1.282-.741-1.963-1.983-2.043-.16 0-.28-.06-.361-.18-.04-.16-.02-.3.06-.421s.2-.18.361-.18c1.723.08 2.624 1.002 2.704 2.764zm1.202.721c.04-1.322-.341-2.424-1.142-3.305s-1.943-1.382-3.425-1.502c-.16 0-.26-.06-.3-.18a.75.75 0 010-.421c.08-.12.2-.18.36-.18 1.683.12 2.985.701 3.906 1.743.961 1.042 1.422 2.324 1.382 3.846 0 .16-.06.28-.18.361a.75.75 0 01-.421 0 .404.404 0 01-.18-.361zm2.825.781c0 .16-.06.28-.18.361a.75.75 0 01-.421 0 .404.404 0 01-.18-.361c0-2.364-.701-4.207-2.103-5.529-1.362-1.362-3.085-2.043-5.168-2.043-.24 0-.361-.12-.361-.361 0-.28.12-.421.361-.421 2.324 0 4.247.761 5.769 2.284 1.522 1.482 2.284 3.506 2.284 6.07zm-.662 5.89a5.945 5.945 0 01-1.442 1.683c-.561.401-1.122.501-1.683.301-.681-.2-1.663-.641-2.945-1.322-1.242-.681-2.304-1.362-3.185-2.043a15.791 15.791 0 01-2.584-2.584 23.527 23.527 0 01-1.803-2.764 31.594 31.594 0 01-1.022-1.863c-.24-.561-.401-.962-.481-1.202l-.06-.3c-.2-.561-.1-1.122.3-1.683a5.929 5.929 0 011.683-1.442c.561-.28 1.042-.2 1.442.24.481.601.841 1.042 1.082 1.322.28.401.581.881.902 1.442.361.681.28 1.222-.241 1.623l-.721.541c-.12.08-.2.2-.24.361-.04.12-.06.24-.06.361v.12c.04.12.08.28.12.481.08.16.24.501.481 1.022.28.481.581.942.901 1.382.361.401.841.821 1.442 1.262a6.698 6.698 0 002.103.962c.361 0 .641-.12.841-.361l.601-.721c.401-.521.921-.601 1.562-.241 1.122.641 2.043 1.302 2.764 1.983.441.401.521.881.24 1.442z"/></svg></svg>