<svg width="22" height="19" viewBox="0 0 22 19" fill="none" xmlns="http://www.w3.org/2000/svg">
<path d="M21.875 1.95898L18.5547 17.4863C18.2943 18.5931 17.6921 18.8861 16.748 18.3652L11.7188 14.6543L9.27734 16.998C8.95182 17.3236 8.61003 17.4863 8.25195 17.4863L8.64258 12.3594L17.9688 3.96094C18.1966 3.73307 18.1966 3.60286 17.9688 3.57031C17.7734 3.50521 17.5618 3.55404 17.334 3.7168L5.81055 10.9922L0.830078 9.42969C0.276693 9.26693 0.016276 9.02279 0.0488281 8.69727C0.0813802 8.37174 0.423177 8.09505 1.07422 7.86719L20.459 0.347656C20.9473 0.184896 21.3379 0.25 21.6309 0.542969C21.9238 0.803385 22.0052 1.27539 21.875 1.95898Z" fill="black" fill-opacity="0.6"/>
</svg>
